# xmcd CD database file
#
# Track frame offsets:
#	150
#	23801
#	56011
#	74616
#	95380
#	108978
#	124090
#	143502
#
# Disc length: 2174 seconds
#
# Revision: 0
# Processed by: cddbd v1.5.2PL0 Copyright (c) Steve Scherf et al.
# Submitted via: CDex 1.51
#
DISCID=6a087c08
DTITLE=Jerry Waddel - Wall Of Blues
DYEAR=2002
DGENRE=Blues
TTITLE0=She's Rockin' My Blues
TTITLE1=Cryin' In The Rain
TTITLE2=Please Don't Leave
TTITLE3=Walkin' In The Night
TTITLE4=Talk About Love
TTITLE5=Screwin' With My Brain
TTITLE6=Guard Your Heart
TTITLE7=Come On Over
EXTD=YEAR: 2002
EXTT0=
EXTT1=
EXTT2=
EXTT3=
EXTT4=
EXTT5=
EXTT6=
EXTT7=
PLAYORDER=
